<?xml version="1.0" standalone="no"?>
<!DOCTYPE svg PUBLIC "-//W3C//DTD SVG 20010904//EN"
 "http://www.w3.org/TR/2001/REC-SVG-20010904/DTD/svg10.dtd">
<svg version="1.0" xmlns="http://www.w3.org/2000/svg" viewBox="0 0 734.000000 401.000000"
 preserveAspectRatio="xMidYMid meet">

<g transform="translate(0.000000,401.000000) scale(0.100000,-0.100000)"
fill="#000000" stroke="none">
<path d="M6878 3138 c-15 -7 -54 -39 -86 -70 -37 -36 -80 -65 -113 -79 -67
-27 -235 -73 -354 -98 -224 -47 -680 -178 -870 -250 -256 -98 -360 -131 -412
-131 -41 0 -53 4 -53 15 0 10 10 15 26 15 22 0 25 2 14 15 -7 8 -19 15 -27 15
-24 0 -63 31 -93 75 l-29 42 -93 7 c-80 6 -104 12 -173 46 -91 44 -194 80
-227 80 -13 0 -41 11 -62 24 -38 23 -45 23 -185 19 -131 -5 -154 -3 -221 17
-41 12 -100 27 -130 33 -49 9 -59 7 -88 -10 -28 -17 -39 -19 -73 -11 -40 11
-99 -4 -99 -23 0 -5 -5 -9 -10 -9 -6 0 -43 -23 -83 -50 -59 -41 -92 -55 -182
-79 -60 -17 -121 -32 -135 -35 -14 -3 -41 -19 -60 -37 -19 -17 -60 -47 -90
-66 -48 -31 -127 -96 -225 -185 -16 -15 -60 -37 -97 -48 -66 -20 -68 -21 -94
-77 -15 -31 -29 -76 -32 -100 -4 -40 -9 -47 -38 -59 -38 -16 -200 -17 -474 -5
-199 9 -641 -3 -875 -24 -93 -8 -231 -15 -305 -15 l-134 0 -85 42 c-98 48
-143 52 -192 16 -40 -30 -59 -67 -59 -116 0 -139 169 -365 335 -448 59 -30 84
-49 103 -79 30 -47 122 -185 133 -200 44 -56 161 -194 175 -205 14 -13 408
-15 2751 -16 1503 0 2735 2 2737 5 5 8 -86 127 -138 181 -50 51 -65 65 -158
140 -38 29 -68 55 -68 57 0 2 60 63 133 136 168 167 263 307 345 512 32 80 83
241 96 302 4 18 24 49 44 71 141 148 206 288 217 469 6 87 4 101 -14 130 -11
18 -30 39 -43 47 -33 21 -98 28 -130 14z m80 -100 c31 -31 -2 -222 -59 -334
-17 -33 -49 -81 -72 -106 -23 -24 -54 -58 -69 -74 -21 -22 -40 -71 -73 -183
-41 -136 -151 -395 -175 -411 -4 -3 -14 -19 -23 -37 -59 -114 -332 -383 -390
-383 -9 0 -31 10 -50 22 -18 13 -79 52 -135 88 -59 38 -100 70 -97 77 2 7 0
48 -5 92 -7 59 -18 95 -45 147 -36 70 -109 153 -134 154 -16 0 -13 -12 33
-115 35 -80 74 -221 62 -232 -3 -3 -45 12 -93 33 -103 44 -199 56 -270 31 -45
-15 -56 -13 -67 17 -6 17 -10 14 -27 -20 -11 -21 -43 -57 -72 -79 -88 -68
-166 -146 -248 -248 -74 -91 -127 -145 -239 -243 -25 -21 -51 -45 -58 -51 -11
-10 -243 -13 -1091 -13 l-1078 0 -13 100 c-9 72 -16 100 -26 100 -11 0 -14
-21 -14 -100 l0 -100 -135 0 -135 0 0 38 c0 53 -39 128 -104 199 -31 33 -54
67 -52 75 11 36 15 98 6 98 -5 0 -22 -18 -36 -40 -15 -22 -32 -40 -38 -40 -6
0 -24 11 -39 24 -55 48 -155 107 -189 113 -35 5 -58 -3 -161 -59 -22 -12 -77
-25 -130 -32 -115 -15 -170 -43 -214 -110 -32 -46 -33 -52 -33 -147 0 -55 -4
-99 -9 -99 -20 0 -151 159 -236 287 -89 134 -91 136 -165 176 -142 76 -191
124 -267 266 -31 56 -40 122 -21 139 12 10 30 4 94 -29 132 -67 188 -69 819
-17 80 6 270 9 445 7 607 -7 654 -6 674 13 40 40 45 20 17 -67 -46 -142 -61
-204 -61 -258 0 -31 4 -57 9 -57 4 0 18 35 30 78 12 42 40 135 62 205 22 71
46 158 54 193 20 94 40 122 109 150 34 14 81 44 110 72 72 67 152 132 216 175
30 20 65 44 76 52 12 9 79 31 149 50 106 28 140 42 194 79 37 26 73 46 82 46
9 0 26 9 39 20 27 24 29 24 54 5 28 -21 47 -19 80 10 16 14 37 23 45 21 9 -3
48 -12 86 -22 39 -9 79 -21 89 -27 11 -5 88 -9 177 -8 126 2 164 -1 188 -14
17 -8 45 -15 63 -15 31 0 255 -98 289 -127 10 -8 42 -13 86 -13 79 0 92 -9
147 -105 16 -27 66 -102 111 -165 44 -63 101 -146 124 -183 25 -38 48 -64 53
-59 19 19 -56 164 -137 265 -30 37 -55 69 -55 71 0 1 37 6 83 9 83 6 100 11
282 84 211 85 564 195 775 243 52 12 118 28 145 35 28 7 75 19 105 25 81 17
255 67 333 97 50 18 85 41 137 89 72 66 87 73 108 52z m-1322 -1327 c88 -42
210 -113 306 -178 156 -104 458 -338 458 -353 0 -6 -75 -10 -189 -10 l-190 0
1 88 c1 195 -55 262 -243 288 -89 13 -155 33 -169 54 -12 18 -72 40 -107 40
-38 0 -50 -7 -248 -140 -12 -8 -53 -41 -92 -73 -77 -64 -119 -132 -129 -210
l-7 -47 -143 0 c-79 0 -144 3 -144 7 0 3 36 39 79 80 44 40 117 117 162 171
121 142 167 189 237 239 101 73 162 94 254 90 65 -3 89 -10 164 -46z m-3882
-156 c114 -67 158 -96 215 -141 56 -46 121 -119 121 -136 0 -5 -16 -6 -35 -2
-30 5 -39 2 -65 -24 -23 -23 -30 -40 -30 -67 0 -31 -2 -35 -14 -26 -8 6 -24
36 -37 66 -22 50 -28 57 -77 75 -63 24 -72 25 -72 5 0 -22 -13 -18 -40 10 -29
31 -81 33 -128 5 -41 -25 -42 -25 -42 5 0 30 -19 32 -63 8 -41 -23 -44 -28
-52 -80 -6 -40 -25 -62 -25 -29 0 8 -14 28 -31 45 -40 41 -80 41 -119 2 -35
-34 -40 -25 -30 56 8 65 34 113 73 135 37 21 100 38 144 38 45 0 130 29 172
59 14 10 35 21 46 24 11 2 22 5 24 6 2 0 32 -15 65 -34z m3844 -9 c70 -35 101
-44 159 -49 91 -7 156 -35 182 -78 19 -32 39 -154 27 -166 -3 -3 -17 6 -30 20
-34 37 -78 36 -117 -2 -16 -16 -29 -37 -29 -45 0 -32 -18 -15 -30 30 -20 72
-110 128 -110 69 0 -28 -21 -33 -40 -10 -20 24 -111 20 -139 -6 -20 -19 -23
-19 -34 -5 -11 15 -17 14 -65 -1 -48 -16 -56 -22 -77 -68 -25 -52 -48 -85 -58
-85 -4 0 -6 21 -5 46 1 57 -17 77 -74 80 -24 1 -43 7 -43 12 0 25 79 103 166
163 106 73 210 139 222 139 4 0 47 -20 95 -44z m-3890 -271 c7 -7 -44 -129
-55 -132 -12 -4 -53 86 -53 116 0 11 8 22 18 24 18 5 83 -1 90 -8z m3880 -8
c5 -23 -28 -127 -40 -127 -11 0 -58 98 -58 121 0 25 11 30 55 27 29 -2 41 -8
43 -21z m-4237 -28 c17 -9 20 -17 14 -52 -10 -64 -15 -77 -30 -77 -18 0 -42
36 -55 81 -8 28 -7 36 7 47 21 15 38 15 64 1z m4562 -11 c21 -32 -26 -135 -57
-125 -18 6 -30 88 -17 120 9 23 16 28 37 25 15 -2 32 -10 37 -20z m-3843 -8
c12 -23 3 -110 -11 -110 -21 0 -49 42 -49 73 0 53 39 77 60 37z m3108 8 c17
-17 15 -43 -8 -88 -31 -61 -49 -53 -52 23 -3 63 29 96 60 65z m447 2 c3 -5 1
-10 -4 -10 -6 0 -11 5 -11 10 0 6 2 10 4 10 3 0 8 -4 11 -10z"/>
<path d="M6765 2810 c-62 -27 -206 -68 -450 -129 -67 -17 -180 -47 -380 -101
-16 -4 -59 -18 -95 -30 -36 -12 -92 -31 -125 -41 -56 -16 -177 -58 -217 -74
-13 -5 -20 -1 -26 16 -8 21 -11 19 -49 -32 -79 -106 -99 -175 -90 -321 3 -54
9 -103 13 -109 3 -6 49 31 103 84 100 99 148 139 266 223 140 100 219 135 535
241 124 41 268 93 320 115 105 45 280 154 280 175 0 18 -5 17 -85 -17z"/>
<path d="M3932 2510 c-23 -5 -76 -27 -118 -49 l-76 -39 -86 14 c-130 21 -243
-2 -272 -55 -15 -28 0 -32 51 -14 48 18 200 21 254 5 29 -8 30 -11 47 -113 10
-57 22 -135 27 -174 18 -128 41 -220 59 -233 15 -12 17 -8 20 38 2 27 -6 114
-17 193 -11 78 -22 177 -25 219 -7 91 -7 90 108 133 52 20 85 26 130 24 48 -2
62 1 64 13 2 8 -3 20 -10 26 -19 16 -106 22 -156 12z"/>
<path d="M4425 2434 c-11 -3 -49 -12 -85 -20 -65 -15 -116 -46 -106 -63 3 -5
40 -1 88 10 163 37 332 23 448 -36 47 -24 134 -102 160 -144 25 -40 68 -86 74
-80 11 11 -21 96 -52 142 -45 64 -105 113 -192 154 -71 35 -81 36 -195 39 -66
2 -129 1 -140 -2z"/>
<path d="M3109 2236 c-2 -3 -37 -12 -77 -20 -215 -45 -369 -189 -411 -384 -16
-75 -15 -84 11 -80 17 2 24 14 33 53 31 137 120 247 257 315 68 33 105 44 205
60 123 19 168 33 158 51 -6 9 -167 13 -176 5z"/>
<path d="M4485 2221 c-211 -65 -364 -171 -394 -273 -20 -64 -26 -154 -12 -163
8 -4 14 0 17 11 3 11 20 57 37 104 28 74 38 89 82 123 79 60 222 126 301 139
151 23 232 -8 348 -134 74 -81 76 -82 76 -51 0 41 -73 137 -137 181 -107 71
-219 93 -318 63z"/>
<path d="M4430 2002 c-175 -71 -266 -196 -278 -382 l-4 -75 118 -23 c147 -27
202 -28 316 -1 74 17 100 29 151 68 65 48 119 119 151 198 l19 46 -64 61 c-94
89 -161 119 -274 123 -70 2 -100 -1 -135 -15z m218 -70 c4 -42 -12 -62 -49
-62 -39 0 -64 37 -49 74 9 24 14 27 52 24 41 -3 43 -5 46 -36z"/>
<path d="M2988 1992 c-129 -46 -240 -175 -270 -315 -19 -91 7 -71 70 52 75
148 167 209 331 218 79 5 112 2 186 -17 123 -31 166 -55 222 -124 53 -66 80
-83 68 -45 -13 45 -49 111 -75 136 -86 87 -397 143 -532 95z"/>
<path d="M2060 1945 c0 -13 -40 -15 -303 -15 -167 0 -386 -6 -488 -12 -101 -7
-286 -13 -411 -13 -126 0 -228 -4 -228 -8 0 -10 55 -33 127 -53 32 -9 74 -20
93 -26 19 -5 184 -14 365 -18 182 -5 368 -13 415 -19 185 -23 371 -85 578
-192 62 -32 112 -53 112 -46 0 7 -11 55 -24 107 -35 145 -72 206 -165 274 -53
39 -71 44 -71 21z"/>
<path d="M3080 1817 c-26 -7 -62 -23 -82 -35 -46 -29 -130 -120 -165 -179 -30
-52 -28 -60 43 -135 112 -118 179 -144 351 -136 115 6 173 22 308 90 l66 32
-6 41 c-18 114 -119 244 -233 298 -57 27 -80 32 -152 34 -47 2 -105 -3 -130
-10z m218 -69 c13 -13 16 -47 6 -72 -9 -22 -73 -21 -90 2 -18 23 -17 42 3 64
18 20 63 24 81 6z"/>
<path d="M3980 1530 c0 -6 20 -38 45 -72 24 -33 42 -64 40 -68 -3 -4 -25 -13
-50 -19 -25 -6 -45 -15 -45 -19 0 -4 -12 -20 -26 -35 l-26 -28 -43 26 c-29 16
-58 25 -88 25 -24 0 -46 2 -49 5 -3 3 6 42 20 86 13 44 22 82 19 85 -11 11
-56 -31 -71 -66 -41 -97 -30 -124 63 -160 135 -53 223 -34 309 65 46 52 43 86
-12 141 -40 40 -86 58 -86 34z"/>
</g>
</svg>
